<svg xmlns="http://www.w3.org/2000/svg" width="1024" height="1024" viewBox="0 0 1024 1024"><path fill="#1c1e1f" d="M0 0h1024v1024H0z"/><path fill="#c77442" d="M326.283 174.193c2.882-.666 31.47-.295 36.42-.29l94.925-.041 387.536.035-.029 345.545.018 95.851c.01 23.454.899 46.982-2.134 70.201a208.9 208.9 0 0 1-24.918 75.041c-26.685 47.243-72.896 84.422-125.323 98.956-15.093 3.246-29.998 6.5-45.559 6.578-19.631.098-39.269.022-58.902.022l-92.555.002-316.865-.042c-.516-40.648-.018-82.421-.018-123.193l.003-243.569-.011-111.874c-.011-23.197-1.168-52.801 2.337-75.237a169.6 169.6 0 0 1 33.249-76.172c28.355-36.12 66.551-56.504 111.826-61.813"/><path fill="#1c1e1f" d="M802.858 192.224c6.994-.316 15.624.185 22.827.305q.164 2.483.206 4.97c.364 34.637.013 69.882.013 104.583l-.008 205.983.001 97.944c.004 32.596 1.808 65.578-5.615 97.536-15.71 67.631-70.89 123.428-138.724 138.854-26.366 5.996-53.725 4.477-80.618 4.482l-83.339.007-301.457-.012c-5.911.02-11.9.123-17.798-.189-.656-10.149-.243-24.869-.242-35.347l.012-65.275.006-202.15-.003-142.596-.017-41.564c-.001-7.751-.138-15.555.019-23.321 1.228-42.235 17.284-78.596 48.23-107.106 40.281-37.111 77.507-36.897 128.581-36.859l64.464.018 232.542.041 89.433.136c13.48-.08 28.052.402 41.487-.44"/><path fill="#c77442" d="m316.527 266.926 390.759.047c-3.975 4.794-8.174 11.069-11.904 16.181l-22.806 31.419c-3.309 4.54-7.479 8.983-10.687 13.466-10.692 14.947-21.708 29.93-32.673 44.692l-59.53 80.303c-12.22 16.408-27.858 34.947-37.521 52.807-10.818 19.999-10.028 48.957-10.031 71.228l.009 50.988-.015 50.967c-.061 27.46-3.504 53.644 27.246 66.186 18.962 6.403 40.437 9.583 59.258 16.503 4.005 1.473 7.945 9.951 2.637 11.158-2.499.568-10.605.241-13.56.24l-30.208-.014-112.021.014c-5.972.003-41.552 1.161-44.761-.912-1.553-3.165 1.024-8.316 3.805-9.956 5.468-3.636 13.051-3.813 18.815-5.835 14.253-4.999 38.637-7.508 50.742-15.981a41.04 41.04 0 0 0 16.701-26.633c1.56-8.723 1.105-19.803 1.11-28.837l.011-40.121-.015-60.017c-.013-25.59 1.821-59.459-11.56-81.684-10.762-17.877-26.624-37.124-39.041-54.166l-86.996-117.504-24.514-33.195c-7.648-10.232-15.955-20.896-23.25-31.344"/><path fill="#1c1e1f" d="m349.028 282.158 1.109-.017c23.678-.337 47.97-.066 71.684-.065l133.188.008 78.558.003c11.97-.004 23.946-.079 35.916-.061 2.289.003 5.427-.164 7.078 1.439-1.91 4.335-7.454 10.984-10.428 15.056a1340 1340 0 0 1-24.868 33.599l-56.859 77.15-45.349 60.94-13.368 18.323c-4.721 6.453-5.838 10.146-13.711 12.498a41 41 0 0 1-2.582-.817c-5.386-1.931-10.725-11.548-14.224-16.26l-28.214-38.104-64.595-87.237c-15.179-20.347-38.828-51.4-54.024-73.237-.68-.978.185-2.269.689-3.218"/><path fill="#c77442" d="M450.134 312.745c14.375-.342 28.175.055 42.395-.01l103.438-.148c-1.717 3.101-5.714 8.254-7.937 11.305l-16.772 22.563-43.856 59.547c-5.478 7.525-11.69 15.562-16.683 23.421-2.84 4.47 6.449 8.551 9.741 9.923 5.581-3.582 26.548-34.038 31.918-41.429l41.855-57.182c4.375-6.078 16.839-23.926 21.256-27.87l18.081.085c-1.695 1.774-2.568 2.992-4.01 4.941-4.23 6.355-10.139 13.573-14.727 19.974a7144 7144 0 0 1-58.679 79.294L529.7 453.231c-4.388 6.081-12.831 18.196-17.614 23.485l-89.355-120.478c-10.709-14.495-21.964-28.51-32.176-43.299 19.791-.288 39.773.277 59.579-.194"/></svg>